<mxfile host="app.diagrams.net" agent="Mozilla/5.0 (Windows NT 10.0; Win64; x64) AppleWebKit/537.36 (KHTML, like Gecko) Chrome/131.0.0.0 Safari/537.36 Edg/131.0.0.0" version="24.7.17">
  <diagram name="Strona-1" id="Y3_z54GV7X3m37P1FHJH">
    <mxGraphModel dx="3304" dy="1334" grid="1" gridSize="10" guides="1" tooltips="1" connect="1" arrows="1" fold="1" page="1" pageScale="1" pageWidth="827" pageHeight="1169" math="0" shadow="0">
      <root>
        <mxCell id="0" />
        <mxCell id="1" parent="0" />
        <mxCell id="K2qPhDOprXBzJBwdk9Rb-3" value="" style="edgeStyle=orthogonalEdgeStyle;rounded=0;orthogonalLoop=1;jettySize=auto;html=1;" edge="1" parent="1" source="K2qPhDOprXBzJBwdk9Rb-1" target="K2qPhDOprXBzJBwdk9Rb-2">
          <mxGeometry relative="1" as="geometry" />
        </mxCell>
        <mxCell id="K2qPhDOprXBzJBwdk9Rb-1" value="Start" style="ellipse;whiteSpace=wrap;html=1;" vertex="1" parent="1">
          <mxGeometry x="340" y="20" width="120" height="30" as="geometry" />
        </mxCell>
        <mxCell id="K2qPhDOprXBzJBwdk9Rb-5" value="" style="edgeStyle=orthogonalEdgeStyle;rounded=0;orthogonalLoop=1;jettySize=auto;html=1;" edge="1" parent="1" source="K2qPhDOprXBzJBwdk9Rb-2" target="K2qPhDOprXBzJBwdk9Rb-4">
          <mxGeometry relative="1" as="geometry" />
        </mxCell>
        <mxCell id="K2qPhDOprXBzJBwdk9Rb-6" value="E-mail, Hasło" style="edgeLabel;html=1;align=center;verticalAlign=middle;resizable=0;points=[];" vertex="1" connectable="0" parent="K2qPhDOprXBzJBwdk9Rb-5">
          <mxGeometry x="-0.7435" y="-1" relative="1" as="geometry">
            <mxPoint x="14" y="-11" as="offset" />
          </mxGeometry>
        </mxCell>
        <mxCell id="K2qPhDOprXBzJBwdk9Rb-10" value="" style="edgeStyle=orthogonalEdgeStyle;rounded=0;orthogonalLoop=1;jettySize=auto;html=1;" edge="1" parent="1" source="K2qPhDOprXBzJBwdk9Rb-2" target="K2qPhDOprXBzJBwdk9Rb-9">
          <mxGeometry relative="1" as="geometry" />
        </mxCell>
        <mxCell id="K2qPhDOprXBzJBwdk9Rb-12" value="Zalogowany użytkownik&lt;div&gt;Przechowywany w layout&lt;/div&gt;" style="edgeLabel;html=1;align=center;verticalAlign=middle;resizable=0;points=[];" vertex="1" connectable="0" parent="K2qPhDOprXBzJBwdk9Rb-10">
          <mxGeometry x="0.1269" y="-1" relative="1" as="geometry">
            <mxPoint x="1" y="-12" as="offset" />
          </mxGeometry>
        </mxCell>
        <mxCell id="K2qPhDOprXBzJBwdk9Rb-2" value="Strona Logowania&lt;div&gt;Strona główna&lt;/div&gt;" style="whiteSpace=wrap;html=1;fillColor=#dae8fc;strokeColor=#6c8ebf;" vertex="1" parent="1">
          <mxGeometry x="340" y="140" width="120" height="60" as="geometry" />
        </mxCell>
        <mxCell id="K2qPhDOprXBzJBwdk9Rb-7" style="edgeStyle=orthogonalEdgeStyle;rounded=0;orthogonalLoop=1;jettySize=auto;html=1;exitX=0.8;exitY=0.8;exitDx=0;exitDy=0;exitPerimeter=0;entryX=1;entryY=0.75;entryDx=0;entryDy=0;" edge="1" parent="1" source="K2qPhDOprXBzJBwdk9Rb-4" target="K2qPhDOprXBzJBwdk9Rb-2">
          <mxGeometry relative="1" as="geometry">
            <mxPoint x="696.4000000000001" y="190" as="targetPoint" />
            <Array as="points">
              <mxPoint x="690" y="74" />
              <mxPoint x="690" y="185" />
            </Array>
          </mxGeometry>
        </mxCell>
        <mxCell id="K2qPhDOprXBzJBwdk9Rb-8" value="Brak autoryzacji" style="edgeLabel;html=1;align=center;verticalAlign=middle;resizable=0;points=[];" vertex="1" connectable="0" parent="K2qPhDOprXBzJBwdk9Rb-7">
          <mxGeometry x="0.4978" y="-1" relative="1" as="geometry">
            <mxPoint y="16" as="offset" />
          </mxGeometry>
        </mxCell>
        <mxCell id="K2qPhDOprXBzJBwdk9Rb-19" style="edgeStyle=orthogonalEdgeStyle;rounded=0;orthogonalLoop=1;jettySize=auto;html=1;exitX=0.96;exitY=0.7;exitDx=0;exitDy=0;exitPerimeter=0;entryX=1;entryY=0.5;entryDx=0;entryDy=0;" edge="1" parent="1" source="K2qPhDOprXBzJBwdk9Rb-4" target="K2qPhDOprXBzJBwdk9Rb-9">
          <mxGeometry relative="1" as="geometry">
            <Array as="points">
              <mxPoint x="715" y="340" />
            </Array>
          </mxGeometry>
        </mxCell>
        <mxCell id="K2qPhDOprXBzJBwdk9Rb-20" value="ustawia w ciasteczkach&lt;div&gt;użytkownika i weryfikuje token&lt;/div&gt;" style="edgeLabel;html=1;align=center;verticalAlign=middle;resizable=0;points=[];" vertex="1" connectable="0" parent="K2qPhDOprXBzJBwdk9Rb-19">
          <mxGeometry x="0.3004" y="-2" relative="1" as="geometry">
            <mxPoint as="offset" />
          </mxGeometry>
        </mxCell>
        <mxCell id="K2qPhDOprXBzJBwdk9Rb-4" value="&lt;div style=&quot;background-color: rgb(30, 31, 34);&quot;&gt;&lt;pre style=&quot;font-family: &amp;quot;JetBrains Mono&amp;quot;, monospace;&quot;&gt;&lt;font color=&quot;#009900&quot;&gt;/api/auth/login&lt;/font&gt;&lt;/pre&gt;&lt;/div&gt;" style="ellipse;shape=cloud;whiteSpace=wrap;html=1;" vertex="1" parent="1">
          <mxGeometry x="600" y="10" width="120" height="80" as="geometry" />
        </mxCell>
        <mxCell id="K2qPhDOprXBzJBwdk9Rb-14" value="" style="edgeStyle=orthogonalEdgeStyle;rounded=0;orthogonalLoop=1;jettySize=auto;html=1;" edge="1" parent="1" source="K2qPhDOprXBzJBwdk9Rb-9" target="K2qPhDOprXBzJBwdk9Rb-13">
          <mxGeometry relative="1" as="geometry">
            <Array as="points">
              <mxPoint x="390" y="525" />
            </Array>
          </mxGeometry>
        </mxCell>
        <mxCell id="K2qPhDOprXBzJBwdk9Rb-15" style="edgeStyle=orthogonalEdgeStyle;rounded=0;orthogonalLoop=1;jettySize=auto;html=1;exitX=0.75;exitY=1;exitDx=0;exitDy=0;" edge="1" parent="1" source="K2qPhDOprXBzJBwdk9Rb-9" target="K2qPhDOprXBzJBwdk9Rb-16">
          <mxGeometry relative="1" as="geometry">
            <mxPoint x="570" y="480" as="targetPoint" />
          </mxGeometry>
        </mxCell>
        <mxCell id="K2qPhDOprXBzJBwdk9Rb-17" style="edgeStyle=orthogonalEdgeStyle;rounded=0;orthogonalLoop=1;jettySize=auto;html=1;exitX=0.25;exitY=1;exitDx=0;exitDy=0;" edge="1" parent="1" source="K2qPhDOprXBzJBwdk9Rb-9" target="K2qPhDOprXBzJBwdk9Rb-18">
          <mxGeometry relative="1" as="geometry">
            <mxPoint x="229.9999999999999" y="470" as="targetPoint" />
          </mxGeometry>
        </mxCell>
        <mxCell id="K2qPhDOprXBzJBwdk9Rb-21" style="edgeStyle=orthogonalEdgeStyle;rounded=0;orthogonalLoop=1;jettySize=auto;html=1;exitX=0;exitY=0.5;exitDx=0;exitDy=0;entryX=0;entryY=0.5;entryDx=0;entryDy=0;" edge="1" parent="1" source="K2qPhDOprXBzJBwdk9Rb-9" target="K2qPhDOprXBzJBwdk9Rb-2">
          <mxGeometry relative="1" as="geometry">
            <Array as="points">
              <mxPoint x="250" y="340" />
              <mxPoint x="250" y="170" />
            </Array>
          </mxGeometry>
        </mxCell>
        <mxCell id="K2qPhDOprXBzJBwdk9Rb-22" value="Wadliwy token&lt;div&gt;brak tokena&lt;/div&gt;" style="edgeLabel;html=1;align=center;verticalAlign=middle;resizable=0;points=[];" vertex="1" connectable="0" parent="K2qPhDOprXBzJBwdk9Rb-21">
          <mxGeometry x="0.0508" relative="1" as="geometry">
            <mxPoint as="offset" />
          </mxGeometry>
        </mxCell>
        <mxCell id="K2qPhDOprXBzJBwdk9Rb-9" value="Dashboard Layout/Component" style="whiteSpace=wrap;html=1;fillColor=#fff2cc;strokeColor=#d6b656;" vertex="1" parent="1">
          <mxGeometry x="340" y="310" width="120" height="60" as="geometry" />
        </mxCell>
        <mxCell id="K2qPhDOprXBzJBwdk9Rb-59" style="edgeStyle=orthogonalEdgeStyle;rounded=0;orthogonalLoop=1;jettySize=auto;html=1;exitX=0.5;exitY=1;exitDx=0;exitDy=0;entryX=0.25;entryY=0;entryDx=0;entryDy=0;" edge="1" parent="1" source="K2qPhDOprXBzJBwdk9Rb-13" target="K2qPhDOprXBzJBwdk9Rb-54">
          <mxGeometry relative="1" as="geometry">
            <Array as="points">
              <mxPoint x="180" y="550" />
              <mxPoint x="180" y="650" />
              <mxPoint x="460" y="650" />
              <mxPoint x="460" y="858" />
            </Array>
          </mxGeometry>
        </mxCell>
        <mxCell id="K2qPhDOprXBzJBwdk9Rb-120" style="edgeStyle=orthogonalEdgeStyle;rounded=0;orthogonalLoop=1;jettySize=auto;html=1;exitX=0.75;exitY=1;exitDx=0;exitDy=0;entryX=0;entryY=0.75;entryDx=0;entryDy=0;" edge="1" parent="1" source="K2qPhDOprXBzJBwdk9Rb-13" target="K2qPhDOprXBzJBwdk9Rb-96">
          <mxGeometry relative="1" as="geometry">
            <Array as="points">
              <mxPoint x="160" y="620" />
              <mxPoint x="770" y="620" />
              <mxPoint x="770" y="1195" />
            </Array>
          </mxGeometry>
        </mxCell>
        <mxCell id="K2qPhDOprXBzJBwdk9Rb-121" value="&lt;span style=&quot;font-size: 12px; text-wrap-mode: wrap; background-color: rgb(251, 251, 251);&quot;&gt;([user_id] zalogowany)&amp;nbsp;&lt;/span&gt;" style="edgeLabel;html=1;align=center;verticalAlign=middle;resizable=0;points=[];" vertex="1" connectable="0" parent="K2qPhDOprXBzJBwdk9Rb-120">
          <mxGeometry x="0.8881" relative="1" as="geometry">
            <mxPoint x="-1" y="-5" as="offset" />
          </mxGeometry>
        </mxCell>
        <mxCell id="K2qPhDOprXBzJBwdk9Rb-125" style="edgeStyle=orthogonalEdgeStyle;rounded=0;orthogonalLoop=1;jettySize=auto;html=1;exitX=0.25;exitY=1;exitDx=0;exitDy=0;" edge="1" parent="1" source="K2qPhDOprXBzJBwdk9Rb-13" target="K2qPhDOprXBzJBwdk9Rb-126">
          <mxGeometry relative="1" as="geometry">
            <mxPoint x="90" y="740" as="targetPoint" />
          </mxGeometry>
        </mxCell>
        <mxCell id="K2qPhDOprXBzJBwdk9Rb-127" value="[id_menagera]" style="edgeLabel;html=1;align=center;verticalAlign=middle;resizable=0;points=[];" vertex="1" connectable="0" parent="K2qPhDOprXBzJBwdk9Rb-125">
          <mxGeometry x="0.585" y="-1" relative="1" as="geometry">
            <mxPoint as="offset" />
          </mxGeometry>
        </mxCell>
        <mxCell id="K2qPhDOprXBzJBwdk9Rb-13" value="&lt;div style=&quot;background-color:#1e1f22;color:#bcbec4&quot;&gt;&lt;pre style=&quot;font-family:&#39;Inter&#39;;font-size:9,8pt;&quot;&gt;StoreManager&lt;/pre&gt;&lt;/div&gt;" style="whiteSpace=wrap;html=1;fillColor=#dae8fc;strokeColor=#6c8ebf;" vertex="1" parent="1">
          <mxGeometry x="70" y="500" width="120" height="50" as="geometry" />
        </mxCell>
        <mxCell id="K2qPhDOprXBzJBwdk9Rb-24" value="" style="edgeStyle=orthogonalEdgeStyle;rounded=0;orthogonalLoop=1;jettySize=auto;html=1;" edge="1" parent="1" source="K2qPhDOprXBzJBwdk9Rb-16" target="K2qPhDOprXBzJBwdk9Rb-23">
          <mxGeometry relative="1" as="geometry" />
        </mxCell>
        <mxCell id="K2qPhDOprXBzJBwdk9Rb-38" style="edgeStyle=orthogonalEdgeStyle;rounded=0;orthogonalLoop=1;jettySize=auto;html=1;exitX=0.25;exitY=1;exitDx=0;exitDy=0;entryX=0.5;entryY=0;entryDx=0;entryDy=0;" edge="1" parent="1" source="K2qPhDOprXBzJBwdk9Rb-16" target="K2qPhDOprXBzJBwdk9Rb-39">
          <mxGeometry relative="1" as="geometry">
            <mxPoint x="730" y="670" as="targetPoint" />
            <Array as="points">
              <mxPoint x="1147" y="570" />
              <mxPoint x="1850" y="570" />
            </Array>
          </mxGeometry>
        </mxCell>
        <mxCell id="K2qPhDOprXBzJBwdk9Rb-48" style="edgeStyle=orthogonalEdgeStyle;rounded=0;orthogonalLoop=1;jettySize=auto;html=1;exitX=0.75;exitY=1;exitDx=0;exitDy=0;" edge="1" parent="1" source="K2qPhDOprXBzJBwdk9Rb-16" target="K2qPhDOprXBzJBwdk9Rb-49">
          <mxGeometry relative="1" as="geometry">
            <mxPoint x="560" y="690" as="targetPoint" />
          </mxGeometry>
        </mxCell>
        <mxCell id="K2qPhDOprXBzJBwdk9Rb-55" value="" style="edgeStyle=orthogonalEdgeStyle;rounded=0;orthogonalLoop=1;jettySize=auto;html=1;" edge="1" parent="1" source="K2qPhDOprXBzJBwdk9Rb-16" target="K2qPhDOprXBzJBwdk9Rb-54">
          <mxGeometry relative="1" as="geometry" />
        </mxCell>
        <mxCell id="K2qPhDOprXBzJBwdk9Rb-60" value="Informacje o zalogowanym&lt;div&gt;użytkowniku&lt;/div&gt;" style="edgeLabel;html=1;align=center;verticalAlign=middle;resizable=0;points=[];" vertex="1" connectable="0" parent="K2qPhDOprXBzJBwdk9Rb-55">
          <mxGeometry x="0.3524" y="2" relative="1" as="geometry">
            <mxPoint x="-12" y="197" as="offset" />
          </mxGeometry>
        </mxCell>
        <mxCell id="K2qPhDOprXBzJBwdk9Rb-94" style="edgeStyle=orthogonalEdgeStyle;rounded=0;orthogonalLoop=1;jettySize=auto;html=1;exitX=1;exitY=1;exitDx=0;exitDy=0;" edge="1" parent="1" source="K2qPhDOprXBzJBwdk9Rb-16" target="K2qPhDOprXBzJBwdk9Rb-95">
          <mxGeometry relative="1" as="geometry">
            <mxPoint x="1020" y="1040" as="targetPoint" />
          </mxGeometry>
        </mxCell>
        <mxCell id="K2qPhDOprXBzJBwdk9Rb-137" style="edgeStyle=orthogonalEdgeStyle;rounded=0;orthogonalLoop=1;jettySize=auto;html=1;exitX=0;exitY=1;exitDx=0;exitDy=0;entryX=0.5;entryY=0;entryDx=0;entryDy=0;" edge="1" parent="1" source="K2qPhDOprXBzJBwdk9Rb-16" target="K2qPhDOprXBzJBwdk9Rb-44">
          <mxGeometry relative="1" as="geometry">
            <Array as="points">
              <mxPoint x="1110" y="590" />
              <mxPoint x="2180" y="590" />
            </Array>
          </mxGeometry>
        </mxCell>
        <mxCell id="K2qPhDOprXBzJBwdk9Rb-16" value="&lt;div style=&quot;&quot;&gt;&lt;pre style=&quot;font-family: Inter;&quot;&gt;WarehouseManager&lt;/pre&gt;&lt;pre style=&quot;font-family: Inter;&quot;&gt;{url}/warehouse-menager&lt;/pre&gt;&lt;/div&gt;" style="rounded=0;whiteSpace=wrap;html=1;fillColor=#dae8fc;strokeColor=#6c8ebf;" vertex="1" parent="1">
          <mxGeometry x="1110" y="440" width="150" height="60" as="geometry" />
        </mxCell>
        <mxCell id="K2qPhDOprXBzJBwdk9Rb-122" style="edgeStyle=orthogonalEdgeStyle;rounded=0;orthogonalLoop=1;jettySize=auto;html=1;exitX=0.5;exitY=1;exitDx=0;exitDy=0;entryX=0;entryY=0.5;entryDx=0;entryDy=0;" edge="1" parent="1" source="K2qPhDOprXBzJBwdk9Rb-18" target="K2qPhDOprXBzJBwdk9Rb-96">
          <mxGeometry relative="1" as="geometry">
            <mxPoint x="270" y="1090" as="targetPoint" />
            <Array as="points">
              <mxPoint x="-353" y="590" />
              <mxPoint x="810" y="590" />
              <mxPoint x="810" y="1180" />
            </Array>
          </mxGeometry>
        </mxCell>
        <mxCell id="K2qPhDOprXBzJBwdk9Rb-18" value="&lt;div style=&quot;background-color:#1e1f22;color:#bcbec4&quot;&gt;&lt;pre style=&quot;font-family:&#39;Inter&#39;;font-size:9,8pt;&quot;&gt;WarehouseWorker&lt;/pre&gt;&lt;/div&gt;" style="rounded=0;whiteSpace=wrap;html=1;fillColor=#dae8fc;strokeColor=#6c8ebf;" vertex="1" parent="1">
          <mxGeometry x="-413.0000000000001" y="480" width="120" height="60" as="geometry" />
        </mxCell>
        <mxCell id="K2qPhDOprXBzJBwdk9Rb-31" value="" style="edgeStyle=orthogonalEdgeStyle;rounded=0;orthogonalLoop=1;jettySize=auto;html=1;" edge="1" parent="1" source="K2qPhDOprXBzJBwdk9Rb-23" target="K2qPhDOprXBzJBwdk9Rb-30">
          <mxGeometry relative="1" as="geometry" />
        </mxCell>
        <mxCell id="K2qPhDOprXBzJBwdk9Rb-23" value="&lt;div style=&quot;&quot;&gt;&lt;pre style=&quot;font-family: Inter;&quot;&gt;MainDashboard&lt;/pre&gt;&lt;pre style=&quot;font-family: Inter;&quot;&gt;Aktywne Ordery &lt;/pre&gt;&lt;pre style=&quot;font-family: Inter;&quot;&gt;[active,ready_to_ship,&lt;/pre&gt;&lt;pre style=&quot;font-family: Inter;&quot;&gt;not_completed]&lt;/pre&gt;&lt;/div&gt;" style="rounded=0;whiteSpace=wrap;html=1;fillColor=#1ba1e2;fontColor=#ffffff;strokeColor=#006EAF;" vertex="1" parent="1">
          <mxGeometry x="1125" y="640" width="120" height="110" as="geometry" />
        </mxCell>
        <mxCell id="K2qPhDOprXBzJBwdk9Rb-25" value="&lt;pre style=&quot;font-family: &amp;quot;JetBrains Mono&amp;quot;, monospace;&quot;&gt;&lt;font color=&quot;#009900&quot;&gt;/api/database/orders/update&lt;/font&gt;&lt;/pre&gt;" style="ellipse;shape=cloud;whiteSpace=wrap;html=1;rounded=0;" vertex="1" parent="1">
          <mxGeometry x="1320" y="710" width="133.33" height="80" as="geometry" />
        </mxCell>
        <mxCell id="K2qPhDOprXBzJBwdk9Rb-33" value="" style="edgeStyle=orthogonalEdgeStyle;rounded=0;orthogonalLoop=1;jettySize=auto;html=1;" edge="1" parent="1" source="K2qPhDOprXBzJBwdk9Rb-30" target="K2qPhDOprXBzJBwdk9Rb-32">
          <mxGeometry relative="1" as="geometry">
            <Array as="points">
              <mxPoint x="920" y="900" />
            </Array>
          </mxGeometry>
        </mxCell>
        <mxCell id="K2qPhDOprXBzJBwdk9Rb-30" value="OrderDashboard&lt;div&gt;(Wszystkie informacje, przydzielanie Dostawcy do ordera&lt;/div&gt;&lt;div&gt;, oraz dokonywanie zmian w orderze)&amp;nbsp;&lt;/div&gt;" style="whiteSpace=wrap;html=1;rounded=0;fillColor=#0050ef;fontColor=#ffffff;strokeColor=#001DBC;" vertex="1" parent="1">
          <mxGeometry x="1125" y="835" width="120" height="105" as="geometry" />
        </mxCell>
        <mxCell id="K2qPhDOprXBzJBwdk9Rb-32" value="&lt;font color=&quot;#009900&quot;&gt;/api/database/suppliers&lt;/font&gt;" style="ellipse;shape=cloud;whiteSpace=wrap;html=1;rounded=0;" vertex="1" parent="1">
          <mxGeometry x="860" y="755" width="120" height="80" as="geometry" />
        </mxCell>
        <mxCell id="K2qPhDOprXBzJBwdk9Rb-36" style="edgeStyle=orthogonalEdgeStyle;rounded=0;orthogonalLoop=1;jettySize=auto;html=1;exitX=1;exitY=0.25;exitDx=0;exitDy=0;entryX=0.55;entryY=0.95;entryDx=0;entryDy=0;entryPerimeter=0;" edge="1" parent="1" source="K2qPhDOprXBzJBwdk9Rb-30" target="K2qPhDOprXBzJBwdk9Rb-25">
          <mxGeometry relative="1" as="geometry" />
        </mxCell>
        <mxCell id="K2qPhDOprXBzJBwdk9Rb-37" value="(Przy Wybraniu Dostawcy)&lt;div&gt;Dodaje dostawce&amp;nbsp;&lt;div&gt;do ordera, Dokonane zmiany w&lt;/div&gt;&lt;/div&gt;&lt;div&gt;Order&lt;/div&gt;" style="edgeLabel;html=1;align=center;verticalAlign=middle;resizable=0;points=[];" vertex="1" connectable="0" parent="K2qPhDOprXBzJBwdk9Rb-36">
          <mxGeometry x="-0.8383" y="-3" relative="1" as="geometry">
            <mxPoint x="77" y="-14" as="offset" />
          </mxGeometry>
        </mxCell>
        <mxCell id="K2qPhDOprXBzJBwdk9Rb-135" style="edgeStyle=orthogonalEdgeStyle;rounded=0;orthogonalLoop=1;jettySize=auto;html=1;exitX=0.5;exitY=1;exitDx=0;exitDy=0;entryX=0.55;entryY=0.95;entryDx=0;entryDy=0;entryPerimeter=0;" edge="1" parent="1" source="K2qPhDOprXBzJBwdk9Rb-39" target="K2qPhDOprXBzJBwdk9Rb-40">
          <mxGeometry relative="1" as="geometry">
            <mxPoint x="2014.155738467262" y="520" as="targetPoint" />
          </mxGeometry>
        </mxCell>
        <mxCell id="K2qPhDOprXBzJBwdk9Rb-39" value="Dodaj Produkt&lt;div&gt;/add-product&lt;/div&gt;" style="rounded=0;whiteSpace=wrap;html=1;fillColor=#dae8fc;strokeColor=#6c8ebf;" vertex="1" parent="1">
          <mxGeometry x="1790" y="600" width="120" height="60" as="geometry" />
        </mxCell>
        <mxCell id="K2qPhDOprXBzJBwdk9Rb-40" value="&lt;font color=&quot;#009900&quot;&gt;/api/database/products/add&lt;/font&gt;" style="ellipse;shape=cloud;whiteSpace=wrap;html=1;rounded=0;" vertex="1" parent="1">
          <mxGeometry x="1940" y="430" width="120" height="80" as="geometry" />
        </mxCell>
        <mxCell id="K2qPhDOprXBzJBwdk9Rb-44" value="Dodaj Dostawce&lt;div&gt;/add-suppliers&lt;/div&gt;" style="rounded=0;whiteSpace=wrap;html=1;fillColor=#dae8fc;strokeColor=#6c8ebf;" vertex="1" parent="1">
          <mxGeometry x="2120" y="600" width="120" height="60" as="geometry" />
        </mxCell>
        <mxCell id="K2qPhDOprXBzJBwdk9Rb-134" value="" style="edgeStyle=orthogonalEdgeStyle;rounded=0;orthogonalLoop=1;jettySize=auto;html=1;" edge="1" parent="1" source="K2qPhDOprXBzJBwdk9Rb-49" target="K2qPhDOprXBzJBwdk9Rb-133">
          <mxGeometry relative="1" as="geometry">
            <Array as="points">
              <mxPoint x="1560" y="710" />
              <mxPoint x="1730" y="710" />
            </Array>
          </mxGeometry>
        </mxCell>
        <mxCell id="K2qPhDOprXBzJBwdk9Rb-49" value="Dodaj Użytkownika&lt;div&gt;/add-user&lt;/div&gt;" style="rounded=0;whiteSpace=wrap;html=1;fillColor=#dae8fc;strokeColor=#6c8ebf;" vertex="1" parent="1">
          <mxGeometry x="1500" y="600" width="120" height="60" as="geometry" />
        </mxCell>
        <mxCell id="K2qPhDOprXBzJBwdk9Rb-58" value="" style="edgeStyle=orthogonalEdgeStyle;rounded=0;orthogonalLoop=1;jettySize=auto;html=1;" edge="1" parent="1" source="K2qPhDOprXBzJBwdk9Rb-54" target="K2qPhDOprXBzJBwdk9Rb-57">
          <mxGeometry relative="1" as="geometry" />
        </mxCell>
        <mxCell id="K2qPhDOprXBzJBwdk9Rb-64" value="" style="edgeStyle=orthogonalEdgeStyle;rounded=0;orthogonalLoop=1;jettySize=auto;html=1;" edge="1" parent="1" source="K2qPhDOprXBzJBwdk9Rb-54" target="K2qPhDOprXBzJBwdk9Rb-63">
          <mxGeometry relative="1" as="geometry" />
        </mxCell>
        <mxCell id="K2qPhDOprXBzJBwdk9Rb-65" value="Produkt" style="edgeLabel;html=1;align=center;verticalAlign=middle;resizable=0;points=[];" vertex="1" connectable="0" parent="K2qPhDOprXBzJBwdk9Rb-64">
          <mxGeometry x="-0.2184" y="2" relative="1" as="geometry">
            <mxPoint as="offset" />
          </mxGeometry>
        </mxCell>
        <mxCell id="K2qPhDOprXBzJBwdk9Rb-54" value="Strona z Produktami&lt;br&gt;&lt;div&gt;{url}/product-page&lt;/div&gt;" style="rounded=0;whiteSpace=wrap;html=1;fillColor=#cce5ff;strokeColor=#36393d;" vertex="1" parent="1">
          <mxGeometry x="350" y="895" width="120" height="60" as="geometry" />
        </mxCell>
        <mxCell id="K2qPhDOprXBzJBwdk9Rb-61" style="edgeStyle=orthogonalEdgeStyle;rounded=0;orthogonalLoop=1;jettySize=auto;html=1;exitX=0.8;exitY=0.8;exitDx=0;exitDy=0;exitPerimeter=0;entryX=0;entryY=0.25;entryDx=0;entryDy=0;" edge="1" parent="1" source="K2qPhDOprXBzJBwdk9Rb-57" target="K2qPhDOprXBzJBwdk9Rb-54">
          <mxGeometry relative="1" as="geometry">
            <Array as="points">
              <mxPoint x="260" y="804" />
              <mxPoint x="260" y="933" />
            </Array>
          </mxGeometry>
        </mxCell>
        <mxCell id="K2qPhDOprXBzJBwdk9Rb-62" value="Wszystkie&lt;div&gt;Produkty&lt;/div&gt;" style="edgeLabel;html=1;align=center;verticalAlign=middle;resizable=0;points=[];" vertex="1" connectable="0" parent="K2qPhDOprXBzJBwdk9Rb-61">
          <mxGeometry x="0.1004" y="3" relative="1" as="geometry">
            <mxPoint as="offset" />
          </mxGeometry>
        </mxCell>
        <mxCell id="K2qPhDOprXBzJBwdk9Rb-57" value="&lt;font color=&quot;#009900&quot;&gt;/api/database/products&lt;/font&gt;" style="ellipse;shape=cloud;whiteSpace=wrap;html=1;rounded=0;" vertex="1" parent="1">
          <mxGeometry x="200" y="740" width="120" height="80" as="geometry" />
        </mxCell>
        <mxCell id="K2qPhDOprXBzJBwdk9Rb-66" style="edgeStyle=orthogonalEdgeStyle;rounded=0;orthogonalLoop=1;jettySize=auto;html=1;exitX=0.5;exitY=1;exitDx=0;exitDy=0;" edge="1" parent="1" source="K2qPhDOprXBzJBwdk9Rb-63" target="K2qPhDOprXBzJBwdk9Rb-75">
          <mxGeometry relative="1" as="geometry">
            <mxPoint x="360" y="1180" as="targetPoint" />
          </mxGeometry>
        </mxCell>
        <mxCell id="K2qPhDOprXBzJBwdk9Rb-91" style="edgeStyle=orthogonalEdgeStyle;rounded=0;orthogonalLoop=1;jettySize=auto;html=1;exitX=1;exitY=0.5;exitDx=0;exitDy=0;entryX=1;entryY=0.75;entryDx=0;entryDy=0;" edge="1" parent="1" source="K2qPhDOprXBzJBwdk9Rb-72" target="K2qPhDOprXBzJBwdk9Rb-54">
          <mxGeometry relative="1" as="geometry">
            <Array as="points">
              <mxPoint x="600" y="1370" />
              <mxPoint x="600" y="1087" />
              <mxPoint x="510" y="1087" />
              <mxPoint x="510" y="963" />
            </Array>
          </mxGeometry>
        </mxCell>
        <mxCell id="K2qPhDOprXBzJBwdk9Rb-93" value="Wyrzuć błąd&lt;div&gt;Jeśli za dużo produktów&amp;nbsp;&lt;/div&gt;&lt;div&gt;ktoś będzie chciał&lt;/div&gt;&lt;div&gt;zamówić niż jest w inventory&amp;nbsp;&lt;/div&gt;" style="edgeLabel;html=1;align=center;verticalAlign=middle;resizable=0;points=[];" vertex="1" connectable="0" parent="K2qPhDOprXBzJBwdk9Rb-91">
          <mxGeometry x="-0.892" y="3" relative="1" as="geometry">
            <mxPoint x="15" y="-77" as="offset" />
          </mxGeometry>
        </mxCell>
        <mxCell id="K2qPhDOprXBzJBwdk9Rb-63" value="Pojedynczy Produkt&lt;div&gt;[ilość + produkt]&lt;/div&gt;" style="whiteSpace=wrap;html=1;rounded=0;fillColor=#0050ef;fontColor=#ffffff;strokeColor=#001DBC;" vertex="1" parent="1">
          <mxGeometry x="300" y="1057.5" width="120" height="60" as="geometry" />
        </mxCell>
        <mxCell id="K2qPhDOprXBzJBwdk9Rb-69" value="" style="edgeStyle=orthogonalEdgeStyle;rounded=0;orthogonalLoop=1;jettySize=auto;html=1;exitX=0;exitY=0.5;exitDx=0;exitDy=0;" edge="1" parent="1" source="K2qPhDOprXBzJBwdk9Rb-75" target="K2qPhDOprXBzJBwdk9Rb-68">
          <mxGeometry relative="1" as="geometry">
            <mxPoint x="300" y="1210.0000000000002" as="sourcePoint" />
          </mxGeometry>
        </mxCell>
        <mxCell id="K2qPhDOprXBzJBwdk9Rb-70" value="Składanie zamówienia" style="edgeLabel;html=1;align=center;verticalAlign=middle;resizable=0;points=[];" vertex="1" connectable="0" parent="K2qPhDOprXBzJBwdk9Rb-69">
          <mxGeometry x="-0.288" y="-1" relative="1" as="geometry">
            <mxPoint x="131" y="65" as="offset" />
          </mxGeometry>
        </mxCell>
        <mxCell id="K2qPhDOprXBzJBwdk9Rb-73" value="" style="edgeStyle=orthogonalEdgeStyle;rounded=0;orthogonalLoop=1;jettySize=auto;html=1;exitX=1;exitY=0.5;exitDx=0;exitDy=0;" edge="1" parent="1" source="K2qPhDOprXBzJBwdk9Rb-75" target="K2qPhDOprXBzJBwdk9Rb-72">
          <mxGeometry relative="1" as="geometry">
            <mxPoint x="420" y="1210.0000000000002" as="sourcePoint" />
            <Array as="points">
              <mxPoint x="480" y="1210" />
            </Array>
          </mxGeometry>
        </mxCell>
        <mxCell id="K2qPhDOprXBzJBwdk9Rb-77" value="" style="edgeStyle=orthogonalEdgeStyle;rounded=0;orthogonalLoop=1;jettySize=auto;html=1;" edge="1" parent="1" source="K2qPhDOprXBzJBwdk9Rb-68" target="K2qPhDOprXBzJBwdk9Rb-76">
          <mxGeometry relative="1" as="geometry" />
        </mxCell>
        <mxCell id="K2qPhDOprXBzJBwdk9Rb-68" value="Warehouse Menager" style="rounded=0;whiteSpace=wrap;html=1;fillColor=#0050ef;fontColor=#ffffff;strokeColor=#001DBC;" vertex="1" parent="1">
          <mxGeometry x="170" y="1350" width="120" height="60" as="geometry" />
        </mxCell>
        <mxCell id="K2qPhDOprXBzJBwdk9Rb-79" value="" style="edgeStyle=orthogonalEdgeStyle;rounded=0;orthogonalLoop=1;jettySize=auto;html=1;" edge="1" parent="1" source="K2qPhDOprXBzJBwdk9Rb-72" target="K2qPhDOprXBzJBwdk9Rb-78">
          <mxGeometry relative="1" as="geometry" />
        </mxCell>
        <mxCell id="K2qPhDOprXBzJBwdk9Rb-72" value="Store Menager" style="rounded=0;whiteSpace=wrap;html=1;fillColor=#0050ef;fontColor=#ffffff;strokeColor=#001DBC;" vertex="1" parent="1">
          <mxGeometry x="420" y="1340" width="120" height="60" as="geometry" />
        </mxCell>
        <mxCell id="K2qPhDOprXBzJBwdk9Rb-75" value="Koszyk" style="rhombus;whiteSpace=wrap;html=1;fillColor=#f8cecc;strokeColor=#b85450;" vertex="1" parent="1">
          <mxGeometry x="320" y="1170" width="80" height="80" as="geometry" />
        </mxCell>
        <mxCell id="K2qPhDOprXBzJBwdk9Rb-84" style="edgeStyle=orthogonalEdgeStyle;rounded=0;orthogonalLoop=1;jettySize=auto;html=1;exitX=0.25;exitY=1;exitDx=0;exitDy=0;entryX=0.25;entryY=0.25;entryDx=0;entryDy=0;entryPerimeter=0;" edge="1" parent="1" source="K2qPhDOprXBzJBwdk9Rb-76" target="K2qPhDOprXBzJBwdk9Rb-85">
          <mxGeometry relative="1" as="geometry">
            <mxPoint x="330" y="1870" as="targetPoint" />
          </mxGeometry>
        </mxCell>
        <mxCell id="K2qPhDOprXBzJBwdk9Rb-86" value="Dodaje" style="edgeLabel;html=1;align=center;verticalAlign=middle;resizable=0;points=[];" vertex="1" connectable="0" parent="K2qPhDOprXBzJBwdk9Rb-84">
          <mxGeometry x="0.5402" y="3" relative="1" as="geometry">
            <mxPoint as="offset" />
          </mxGeometry>
        </mxCell>
        <mxCell id="K2qPhDOprXBzJBwdk9Rb-76" value="status na magazynie:&lt;div&gt;pending&lt;/div&gt;&lt;div&gt;User_id: id_menagera&lt;/div&gt;&lt;div&gt;status: not_completed&lt;/div&gt;" style="rounded=0;whiteSpace=wrap;html=1;fillColor=#e1d5e7;strokeColor=#9673a6;" vertex="1" parent="1">
          <mxGeometry x="170" y="1490" width="120" height="100" as="geometry" />
        </mxCell>
        <mxCell id="K2qPhDOprXBzJBwdk9Rb-83" style="edgeStyle=orthogonalEdgeStyle;rounded=0;orthogonalLoop=1;jettySize=auto;html=1;exitX=0.75;exitY=1;exitDx=0;exitDy=0;entryX=0.88;entryY=0.25;entryDx=0;entryDy=0;entryPerimeter=0;" edge="1" parent="1" source="K2qPhDOprXBzJBwdk9Rb-78" target="K2qPhDOprXBzJBwdk9Rb-85">
          <mxGeometry relative="1" as="geometry">
            <mxPoint x="340" y="1870.7655736019738" as="targetPoint" />
          </mxGeometry>
        </mxCell>
        <mxCell id="K2qPhDOprXBzJBwdk9Rb-87" value="Odejmuje" style="edgeLabel;html=1;align=center;verticalAlign=middle;resizable=0;points=[];" vertex="1" connectable="0" parent="K2qPhDOprXBzJBwdk9Rb-83">
          <mxGeometry x="0.639" relative="1" as="geometry">
            <mxPoint as="offset" />
          </mxGeometry>
        </mxCell>
        <mxCell id="K2qPhDOprXBzJBwdk9Rb-78" value="&lt;div&gt;Wszystko,&lt;/div&gt;&lt;div&gt;poza przypisanym użytkownikiem&lt;/div&gt;" style="rounded=0;whiteSpace=wrap;html=1;fillColor=#e1d5e7;strokeColor=#9673a6;" vertex="1" parent="1">
          <mxGeometry x="420" y="1480" width="120" height="110" as="geometry" />
        </mxCell>
        <mxCell id="K2qPhDOprXBzJBwdk9Rb-80" value="&lt;font color=&quot;#009900&quot;&gt;/api/database/feature/submitorder&lt;/font&gt;" style="ellipse;shape=cloud;whiteSpace=wrap;html=1;" vertex="1" parent="1">
          <mxGeometry x="280" y="1630" width="120" height="80" as="geometry" />
        </mxCell>
        <mxCell id="K2qPhDOprXBzJBwdk9Rb-81" style="edgeStyle=orthogonalEdgeStyle;rounded=0;orthogonalLoop=1;jettySize=auto;html=1;exitX=0.5;exitY=1;exitDx=0;exitDy=0;entryX=0.96;entryY=0.7;entryDx=0;entryDy=0;entryPerimeter=0;" edge="1" parent="1" source="K2qPhDOprXBzJBwdk9Rb-78" target="K2qPhDOprXBzJBwdk9Rb-80">
          <mxGeometry relative="1" as="geometry">
            <Array as="points">
              <mxPoint x="480" y="1686" />
            </Array>
          </mxGeometry>
        </mxCell>
        <mxCell id="K2qPhDOprXBzJBwdk9Rb-82" style="edgeStyle=orthogonalEdgeStyle;rounded=0;orthogonalLoop=1;jettySize=auto;html=1;exitX=0.5;exitY=1;exitDx=0;exitDy=0;entryX=0.083;entryY=0.625;entryDx=0;entryDy=0;entryPerimeter=0;" edge="1" parent="1" source="K2qPhDOprXBzJBwdk9Rb-76" target="K2qPhDOprXBzJBwdk9Rb-80">
          <mxGeometry relative="1" as="geometry">
            <Array as="points">
              <mxPoint x="230" y="1680" />
            </Array>
          </mxGeometry>
        </mxCell>
        <mxCell id="K2qPhDOprXBzJBwdk9Rb-88" style="edgeStyle=orthogonalEdgeStyle;rounded=0;orthogonalLoop=1;jettySize=auto;html=1;exitX=0.55;exitY=0.95;exitDx=0;exitDy=0;exitPerimeter=0;entryX=1;entryY=0.5;entryDx=0;entryDy=0;" edge="1" parent="1" source="K2qPhDOprXBzJBwdk9Rb-85" target="K2qPhDOprXBzJBwdk9Rb-54">
          <mxGeometry relative="1" as="geometry">
            <mxPoint x="500" y="1906" as="sourcePoint" />
            <mxPoint x="584" y="947.5" as="targetPoint" />
            <Array as="points">
              <mxPoint x="650" y="1907" />
              <mxPoint x="650" y="947" />
            </Array>
          </mxGeometry>
        </mxCell>
        <mxCell id="K2qPhDOprXBzJBwdk9Rb-89" value="Ilość danych Produktów" style="edgeLabel;html=1;align=center;verticalAlign=middle;resizable=0;points=[];" vertex="1" connectable="0" parent="K2qPhDOprXBzJBwdk9Rb-88">
          <mxGeometry x="-0.837" y="-1" relative="1" as="geometry">
            <mxPoint as="offset" />
          </mxGeometry>
        </mxCell>
        <mxCell id="K2qPhDOprXBzJBwdk9Rb-90" value="Ilość produktów&amp;nbsp;&lt;div&gt;na magazynie&lt;/div&gt;" style="edgeLabel;html=1;align=center;verticalAlign=middle;resizable=0;points=[];" vertex="1" connectable="0" parent="K2qPhDOprXBzJBwdk9Rb-88">
          <mxGeometry x="0.8913" relative="1" as="geometry">
            <mxPoint as="offset" />
          </mxGeometry>
        </mxCell>
        <mxCell id="K2qPhDOprXBzJBwdk9Rb-85" value="Inventory" style="ellipse;shape=cloud;whiteSpace=wrap;html=1;fillColor=#b1ddf0;strokeColor=#10739e;" vertex="1" parent="1">
          <mxGeometry x="270" y="1830" width="120" height="80" as="geometry" />
        </mxCell>
        <mxCell id="K2qPhDOprXBzJBwdk9Rb-97" value="" style="edgeStyle=orthogonalEdgeStyle;rounded=0;orthogonalLoop=1;jettySize=auto;html=1;" edge="1" parent="1" source="K2qPhDOprXBzJBwdk9Rb-95" target="K2qPhDOprXBzJBwdk9Rb-96">
          <mxGeometry relative="1" as="geometry" />
        </mxCell>
        <mxCell id="K2qPhDOprXBzJBwdk9Rb-101" value="[id_użytkownika]" style="edgeLabel;html=1;align=center;verticalAlign=middle;resizable=0;points=[];" vertex="1" connectable="0" parent="K2qPhDOprXBzJBwdk9Rb-97">
          <mxGeometry x="-0.0164" y="-1" relative="1" as="geometry">
            <mxPoint as="offset" />
          </mxGeometry>
        </mxCell>
        <mxCell id="K2qPhDOprXBzJBwdk9Rb-95" value="Użytkownicy&lt;div&gt;/emplyee-list&lt;/div&gt;&lt;div&gt;&lt;br&gt;&lt;/div&gt;" style="rounded=0;whiteSpace=wrap;html=1;fillColor=#dae8fc;strokeColor=#6c8ebf;" vertex="1" parent="1">
          <mxGeometry x="960" y="1010" width="120" height="60" as="geometry" />
        </mxCell>
        <mxCell id="K2qPhDOprXBzJBwdk9Rb-110" style="edgeStyle=orthogonalEdgeStyle;rounded=0;orthogonalLoop=1;jettySize=auto;html=1;exitX=0.5;exitY=1;exitDx=0;exitDy=0;entryX=0.5;entryY=0;entryDx=0;entryDy=0;" edge="1" parent="1" source="K2qPhDOprXBzJBwdk9Rb-96" target="K2qPhDOprXBzJBwdk9Rb-109">
          <mxGeometry relative="1" as="geometry" />
        </mxCell>
        <mxCell id="K2qPhDOprXBzJBwdk9Rb-96" value="Pojedynczy Pracownik&lt;div&gt;(informacje)&lt;/div&gt;" style="rounded=0;whiteSpace=wrap;html=1;fillColor=#1ba1e2;fontColor=#ffffff;strokeColor=#006EAF;" vertex="1" parent="1">
          <mxGeometry x="960" y="1150" width="120" height="60" as="geometry" />
        </mxCell>
        <mxCell id="K2qPhDOprXBzJBwdk9Rb-107" style="edgeStyle=orthogonalEdgeStyle;rounded=0;orthogonalLoop=1;jettySize=auto;html=1;exitX=1;exitY=0.5;exitDx=0;exitDy=0;entryX=1;entryY=0.5;entryDx=0;entryDy=0;" edge="1" parent="1" source="K2qPhDOprXBzJBwdk9Rb-102" target="K2qPhDOprXBzJBwdk9Rb-96">
          <mxGeometry relative="1" as="geometry">
            <Array as="points">
              <mxPoint x="1170" y="1420" />
              <mxPoint x="1170" y="1180" />
            </Array>
          </mxGeometry>
        </mxCell>
        <mxCell id="K2qPhDOprXBzJBwdk9Rb-108" value="Po edycji" style="edgeLabel;html=1;align=center;verticalAlign=middle;resizable=0;points=[];" vertex="1" connectable="0" parent="K2qPhDOprXBzJBwdk9Rb-107">
          <mxGeometry x="-0.7835" y="3" relative="1" as="geometry">
            <mxPoint as="offset" />
          </mxGeometry>
        </mxCell>
        <mxCell id="K2qPhDOprXBzJBwdk9Rb-141" value="" style="edgeStyle=orthogonalEdgeStyle;rounded=0;orthogonalLoop=1;jettySize=auto;html=1;entryX=0.55;entryY=0.95;entryDx=0;entryDy=0;entryPerimeter=0;" edge="1" parent="1" source="K2qPhDOprXBzJBwdk9Rb-102" target="K2qPhDOprXBzJBwdk9Rb-140">
          <mxGeometry relative="1" as="geometry">
            <Array as="points">
              <mxPoint x="1020" y="1500" />
              <mxPoint x="1276" y="1500" />
            </Array>
          </mxGeometry>
        </mxCell>
        <mxCell id="K2qPhDOprXBzJBwdk9Rb-142" value="Aktualizacja danych" style="edgeLabel;html=1;align=center;verticalAlign=middle;resizable=0;points=[];" vertex="1" connectable="0" parent="K2qPhDOprXBzJBwdk9Rb-141">
          <mxGeometry x="-0.4855" y="4" relative="1" as="geometry">
            <mxPoint as="offset" />
          </mxGeometry>
        </mxCell>
        <mxCell id="K2qPhDOprXBzJBwdk9Rb-102" value="Edycja Danych" style="rounded=0;whiteSpace=wrap;html=1;fillColor=#0050ef;fontColor=#ffffff;strokeColor=#001DBC;" vertex="1" parent="1">
          <mxGeometry x="960" y="1390" width="120" height="60" as="geometry" />
        </mxCell>
        <mxCell id="K2qPhDOprXBzJBwdk9Rb-111" style="edgeStyle=orthogonalEdgeStyle;rounded=0;orthogonalLoop=1;jettySize=auto;html=1;exitX=0.5;exitY=1;exitDx=0;exitDy=0;entryX=0.5;entryY=0;entryDx=0;entryDy=0;" edge="1" parent="1" source="K2qPhDOprXBzJBwdk9Rb-109" target="K2qPhDOprXBzJBwdk9Rb-102">
          <mxGeometry relative="1" as="geometry" />
        </mxCell>
        <mxCell id="K2qPhDOprXBzJBwdk9Rb-112" value="Tak" style="edgeLabel;html=1;align=center;verticalAlign=middle;resizable=0;points=[];" vertex="1" connectable="0" parent="K2qPhDOprXBzJBwdk9Rb-111">
          <mxGeometry x="-0.1182" y="-2" relative="1" as="geometry">
            <mxPoint as="offset" />
          </mxGeometry>
        </mxCell>
        <mxCell id="K2qPhDOprXBzJBwdk9Rb-114" style="edgeStyle=orthogonalEdgeStyle;rounded=0;orthogonalLoop=1;jettySize=auto;html=1;exitX=0.5;exitY=1;exitDx=0;exitDy=0;" edge="1" parent="1" source="K2qPhDOprXBzJBwdk9Rb-109" target="K2qPhDOprXBzJBwdk9Rb-115">
          <mxGeometry relative="1" as="geometry">
            <mxPoint x="870" y="1400" as="targetPoint" />
          </mxGeometry>
        </mxCell>
        <mxCell id="K2qPhDOprXBzJBwdk9Rb-123" style="edgeStyle=orthogonalEdgeStyle;rounded=0;orthogonalLoop=1;jettySize=auto;html=1;exitX=1;exitY=0.5;exitDx=0;exitDy=0;entryX=1;entryY=0.75;entryDx=0;entryDy=0;" edge="1" parent="1" source="K2qPhDOprXBzJBwdk9Rb-109" target="K2qPhDOprXBzJBwdk9Rb-96">
          <mxGeometry relative="1" as="geometry">
            <Array as="points">
              <mxPoint x="1120" y="1290" />
              <mxPoint x="1120" y="1195" />
            </Array>
          </mxGeometry>
        </mxCell>
        <mxCell id="K2qPhDOprXBzJBwdk9Rb-124" value="Nie" style="edgeLabel;html=1;align=center;verticalAlign=middle;resizable=0;points=[];" vertex="1" connectable="0" parent="K2qPhDOprXBzJBwdk9Rb-123">
          <mxGeometry x="-0.8155" y="3" relative="1" as="geometry">
            <mxPoint as="offset" />
          </mxGeometry>
        </mxCell>
        <mxCell id="K2qPhDOprXBzJBwdk9Rb-109" value="log_usr = wh_menagere" style="rhombus;whiteSpace=wrap;html=1;fillColor=#ffcccc;strokeColor=#36393d;" vertex="1" parent="1">
          <mxGeometry x="980" y="1250" width="80" height="80" as="geometry" />
        </mxCell>
        <mxCell id="K2qPhDOprXBzJBwdk9Rb-117" value="" style="edgeStyle=orthogonalEdgeStyle;rounded=0;orthogonalLoop=1;jettySize=auto;html=1;" edge="1" parent="1" source="K2qPhDOprXBzJBwdk9Rb-115" target="K2qPhDOprXBzJBwdk9Rb-116">
          <mxGeometry relative="1" as="geometry" />
        </mxCell>
        <mxCell id="K2qPhDOprXBzJBwdk9Rb-115" value="Zwolnij Pracownika" style="rounded=0;whiteSpace=wrap;html=1;fillColor=#0050ef;fontColor=#ffffff;strokeColor=#001DBC;" vertex="1" parent="1">
          <mxGeometry x="810" y="1390" width="120" height="60" as="geometry" />
        </mxCell>
        <mxCell id="K2qPhDOprXBzJBwdk9Rb-116" value="Rola: zwolniony&lt;div&gt;end-date: Now&lt;/div&gt;&lt;div&gt;sallary: 0&lt;/div&gt;&lt;div&gt;hasło: 1234567890&lt;/div&gt;" style="rounded=0;whiteSpace=wrap;html=1;fillColor=#e1d5e7;strokeColor=#9673a6;" vertex="1" parent="1">
          <mxGeometry x="800" y="1530" width="120" height="60" as="geometry" />
        </mxCell>
        <mxCell id="K2qPhDOprXBzJBwdk9Rb-128" style="edgeStyle=orthogonalEdgeStyle;rounded=0;orthogonalLoop=1;jettySize=auto;html=1;exitX=0;exitY=0.5;exitDx=0;exitDy=0;" edge="1" parent="1" source="K2qPhDOprXBzJBwdk9Rb-126" target="K2qPhDOprXBzJBwdk9Rb-129">
          <mxGeometry relative="1" as="geometry">
            <mxPoint x="-155.81819661458334" y="660" as="targetPoint" />
          </mxGeometry>
        </mxCell>
        <mxCell id="K2qPhDOprXBzJBwdk9Rb-130" value="[id_użytkownika]" style="edgeLabel;html=1;align=center;verticalAlign=middle;resizable=0;points=[];" vertex="1" connectable="0" parent="K2qPhDOprXBzJBwdk9Rb-128">
          <mxGeometry x="-0.2058" y="-3" relative="1" as="geometry">
            <mxPoint as="offset" />
          </mxGeometry>
        </mxCell>
        <mxCell id="K2qPhDOprXBzJBwdk9Rb-126" value="&lt;div&gt;MainDashboard&lt;/div&gt;Show_Orders&lt;div&gt;(status, cena, i tak dalej)&lt;/div&gt;" style="rounded=0;whiteSpace=wrap;html=1;fillColor=#1ba1e2;fontColor=#ffffff;strokeColor=#006EAF;" vertex="1" parent="1">
          <mxGeometry x="30" y="710" width="120" height="60" as="geometry" />
        </mxCell>
        <mxCell id="K2qPhDOprXBzJBwdk9Rb-131" style="edgeStyle=orthogonalEdgeStyle;rounded=0;orthogonalLoop=1;jettySize=auto;html=1;exitX=0.31;exitY=0.8;exitDx=0;exitDy=0;exitPerimeter=0;entryX=0;entryY=0.25;entryDx=0;entryDy=0;" edge="1" parent="1" source="K2qPhDOprXBzJBwdk9Rb-129" target="K2qPhDOprXBzJBwdk9Rb-126">
          <mxGeometry relative="1" as="geometry">
            <Array as="points">
              <mxPoint x="-179" y="725" />
            </Array>
          </mxGeometry>
        </mxCell>
        <mxCell id="K2qPhDOprXBzJBwdk9Rb-132" value="Ordery&lt;div&gt;tego użytkownika&lt;/div&gt;" style="edgeLabel;html=1;align=center;verticalAlign=middle;resizable=0;points=[];" vertex="1" connectable="0" parent="K2qPhDOprXBzJBwdk9Rb-131">
          <mxGeometry x="-0.2847" y="3" relative="1" as="geometry">
            <mxPoint x="34" y="-12" as="offset" />
          </mxGeometry>
        </mxCell>
        <mxCell id="K2qPhDOprXBzJBwdk9Rb-129" value="&lt;font color=&quot;#009900&quot;&gt;/api/database/orders&lt;/font&gt;" style="ellipse;shape=cloud;whiteSpace=wrap;html=1;" vertex="1" parent="1">
          <mxGeometry x="-215.81819661458326" y="620" width="120" height="80" as="geometry" />
        </mxCell>
        <mxCell id="K2qPhDOprXBzJBwdk9Rb-133" value="&lt;span style=&quot;color: rgb(0, 153, 0);&quot;&gt;/api/database/users/add&lt;/span&gt;" style="ellipse;shape=cloud;whiteSpace=wrap;html=1;rounded=0;" vertex="1" parent="1">
          <mxGeometry x="1670" y="430" width="120" height="80" as="geometry" />
        </mxCell>
        <mxCell id="K2qPhDOprXBzJBwdk9Rb-140" value="&lt;span style=&quot;color: rgb(0, 153, 0);&quot;&gt;/api/database/users/update&lt;/span&gt;" style="ellipse;shape=cloud;whiteSpace=wrap;html=1;rounded=0;" vertex="1" parent="1">
          <mxGeometry x="1210" y="1340" width="120" height="80" as="geometry" />
        </mxCell>
        <mxCell id="K2qPhDOprXBzJBwdk9Rb-143" style="edgeStyle=orthogonalEdgeStyle;rounded=0;orthogonalLoop=1;jettySize=auto;html=1;exitX=0.5;exitY=1;exitDx=0;exitDy=0;entryX=0.8;entryY=0.8;entryDx=0;entryDy=0;entryPerimeter=0;" edge="1" parent="1" source="K2qPhDOprXBzJBwdk9Rb-116" target="K2qPhDOprXBzJBwdk9Rb-140">
          <mxGeometry relative="1" as="geometry" />
        </mxCell>
        <mxCell id="K2qPhDOprXBzJBwdk9Rb-144" value="Aktualizacja danych" style="edgeLabel;html=1;align=center;verticalAlign=middle;resizable=0;points=[];" vertex="1" connectable="0" parent="K2qPhDOprXBzJBwdk9Rb-143">
          <mxGeometry x="-0.8204" relative="1" as="geometry">
            <mxPoint as="offset" />
          </mxGeometry>
        </mxCell>
        <mxCell id="K2qPhDOprXBzJBwdk9Rb-148" value="&lt;pre style=&quot;font-family: &amp;quot;JetBrains Mono&amp;quot;, monospace;&quot;&gt;&lt;font color=&quot;#009900&quot;&gt;/api/database/orders&lt;/font&gt;&lt;/pre&gt;" style="ellipse;shape=cloud;whiteSpace=wrap;html=1;rounded=0;" vertex="1" parent="1">
          <mxGeometry x="900" y="560" width="133.33" height="80" as="geometry" />
        </mxCell>
        <mxCell id="K2qPhDOprXBzJBwdk9Rb-149" style="edgeStyle=orthogonalEdgeStyle;rounded=0;orthogonalLoop=1;jettySize=auto;html=1;exitX=0;exitY=0.5;exitDx=0;exitDy=0;entryX=0.55;entryY=0.95;entryDx=0;entryDy=0;entryPerimeter=0;" edge="1" parent="1" source="K2qPhDOprXBzJBwdk9Rb-23" target="K2qPhDOprXBzJBwdk9Rb-148">
          <mxGeometry relative="1" as="geometry">
            <Array as="points">
              <mxPoint x="973" y="695" />
            </Array>
          </mxGeometry>
        </mxCell>
      </root>
    </mxGraphModel>
  </diagram>
</mxfile>
